<svg width="106" height="60" viewBox="0 0 106 60" fill="none" xmlns="http://www.w3.org/2000/svg">
<path fill-rule="evenodd" clip-rule="evenodd" d="M50.1136 5.87813H49.977C49.7671 5.86566 49.5571 5.86067 49.3471 5.85568H49.3471H49.3269H48.8918C48.4946 5.85568 48.0898 5.86566 47.6876 5.88561C47.6573 5.88345 47.6269 5.88345 47.5966 5.88561C43.9522 6.08813 40.3817 6.98151 37.0805 8.51683L36.6479 8.72135V30.437L37.6598 30.1003C38.5477 29.801 39.4938 29.5317 40.4728 29.2823C43.1193 28.6159 45.8367 28.2618 48.568 28.2273V31.0805C48.2062 31.083 47.8546 31.093 47.503 31.1104H47.4195C45.3175 31.2235 43.2317 31.5376 41.1913 32.0482C38.6072 32.6827 36.1143 33.6354 33.7716 34.8839V7.03288C36.2047 5.64101 38.8253 4.59561 41.5556 3.92779C43.9527 3.32077 46.4169 3.00913 48.8918 3H49.3193C49.8303 3.01247 50.3287 3.03492 50.7967 3.06983C52.0297 3.15474 53.2528 3.34585 54.4521 3.64097V6.44927C53.2874 6.18314 52.1032 6.00802 50.9105 5.92552C50.8863 5.92351 50.8621 5.92148 50.8379 5.91946C50.5911 5.89881 50.344 5.87813 50.1136 5.87813ZM55.1528 8.74875C55.7877 8.79614 56.4455 8.81859 57.1108 8.81859C59.7125 8.80926 62.3031 8.4834 64.8239 7.8484C67.4068 7.21145 69.8986 6.25795 72.2411 5.01018V32.3649C69.8067 33.7559 67.1853 34.8013 64.4546 35.47C62.0571 36.0747 59.5931 36.3854 57.1184 36.3953C55.2433 36.4101 53.3737 36.1939 51.553 35.7518V8.22002C51.983 8.31728 52.4257 8.40707 52.876 8.48189C53.6147 8.6041 54.3939 8.69388 55.1528 8.74875ZM69.3471 8.96075L68.3352 9.29495C67.4042 9.60172 66.4657 9.87606 65.5221 10.1205C62.7749 10.8129 59.9514 11.1681 57.1158 11.178C56.4556 11.178 55.8485 11.1605 55.2616 11.1231L54.4546 11.0707V30.7737V33.4099L55.1477 33.4697C55.7903 33.5246 56.4531 33.5521 57.1209 33.5521C59.3544 33.5428 61.5781 33.2604 63.7412 32.7116C65.5223 32.2734 67.2552 31.6627 68.9145 30.8884L69.3471 30.6839V8.96075Z" fill="#AFB1B8"/>
<path d="M35.7371 44.4014C35.5917 44.2534 35.4163 44.1372 35.2224 44.0603C35.0284 43.9834 34.8203 43.9475 34.6114 43.9549C34.3888 43.952 34.1678 43.9927 33.9613 44.0747C33.7719 44.1486 33.5998 44.2598 33.4553 44.4014C33.3125 44.5434 33.2013 44.7133 33.129 44.9002C33.0497 45.096 33.0101 45.3053 33.0126 45.5162V49.2373C33.0036 49.4995 33.0546 49.7604 33.1619 50.0005C33.2514 50.1912 33.3807 50.3612 33.5413 50.4993C33.693 50.6245 33.871 50.7148 34.0625 50.7637C34.2469 50.8146 34.4376 50.8406 34.6291 50.841C34.8404 50.8431 35.0495 50.7988 35.2413 50.7113C35.4309 50.6299 35.6028 50.513 35.7473 50.3671C35.8881 50.2226 36.0005 50.0534 36.0786 49.8683C36.1597 49.6807 36.201 49.4787 36.2001 49.2747V48.8582H35.2084V49.1899C35.2114 49.3032 35.1916 49.4159 35.1502 49.5217C35.1179 49.6009 35.0688 49.6723 35.006 49.7312C34.9446 49.7798 34.8742 49.8163 34.7986 49.8384C34.7316 49.8603 34.6617 49.872 34.5912 49.8733C34.5026 49.8834 34.413 49.8703 34.3312 49.8353C34.2495 49.8002 34.1786 49.7445 34.1257 49.6738C34.0322 49.5242 33.9864 49.3505 33.9942 49.175V45.7058C33.988 45.5134 34.0297 45.3224 34.1156 45.1496C34.1671 45.0711 34.2399 45.0084 34.3258 44.9687C34.4117 44.929 34.5071 44.9139 34.6013 44.9251C34.6868 44.9221 34.7717 44.9396 34.8488 44.9761C34.9259 45.0126 34.9929 45.067 35.044 45.1346C35.155 45.2775 35.213 45.4535 35.2084 45.6334V45.9552H36.19V45.5761C36.1919 45.3534 36.1507 45.1325 36.0685 44.9251C35.9953 44.7302 35.8825 44.552 35.7371 44.4014Z" fill="#AFB1B8"/>
<path d="M41.6289 44.3589C41.3127 44.097 40.9136 43.9523 40.5007 43.9498C40.2987 43.9507 40.0984 43.9861 39.9087 44.0546C39.7161 44.1223 39.5384 44.2255 39.3851 44.3589C39.2208 44.5037 39.0897 44.6814 39.0005 44.8801C38.9006 45.1074 38.8515 45.3532 38.8563 45.6009V49.1699C38.8495 49.4209 38.8987 49.6704 39.0005 49.9006C39.0903 50.0926 39.2215 50.2628 39.3851 50.3994C39.5367 50.5375 39.7147 50.6443 39.9087 50.7137C40.0984 50.7822 40.2987 50.8176 40.5007 50.8184C40.7027 50.8181 40.9031 50.7826 41.0926 50.7137C41.29 50.6434 41.4719 50.5367 41.6289 50.3994C41.7871 50.2602 41.9145 50.0905 42.0033 49.9006C42.1051 49.6704 42.1544 49.4209 42.1475 49.1699V45.6009C42.1524 45.3532 42.1032 45.1074 42.0033 44.8801C41.9151 44.6835 41.7878 44.5062 41.6289 44.3589ZM41.166 49.1699C41.1743 49.265 41.1609 49.3608 41.1268 49.4501C41.0926 49.5394 41.0386 49.6201 40.9687 49.6861C40.8377 49.7939 40.6725 49.8529 40.5019 49.8529C40.3313 49.8529 40.1662 49.7939 40.0352 49.6861C39.9652 49.6201 39.9112 49.5394 39.8771 49.4501C39.8429 49.3608 39.8295 49.265 39.8379 49.1699V45.6009C39.8295 45.5058 39.8429 45.41 39.8771 45.3207C39.9112 45.2313 39.9652 45.1507 40.0352 45.0846C40.1662 44.9769 40.3313 44.9179 40.5019 44.9179C40.6725 44.9179 40.8377 44.9769 40.9687 45.0846C41.0386 45.1507 41.0926 45.2313 41.1268 45.3207C41.1609 45.41 41.1743 45.5058 41.166 45.6009V49.1699Z" fill="#AFB1B8"/>
<path d="M49.3673 50.7636V44.0072H48.4136L47.1614 47.5837H47.1437L45.8813 44.0072H44.9377V50.7636H45.9218V46.6534H45.9395L46.9033 49.5589H47.3941L48.3655 46.6534H48.3832V50.7636H49.3673Z" fill="#AFB1B8"/>
<path d="M54.9581 44.4809C54.8065 44.3142 54.6153 44.1873 54.4015 44.1118C54.1712 44.0383 53.9302 44.0029 53.6881 44.007H52.226V50.7634H53.2075V48.1247H53.7134C54.0197 48.1384 54.3244 48.0749 54.5988 47.9402C54.822 47.8186 55.0081 47.6404 55.1377 47.4239C55.2512 47.2442 55.3277 47.0442 55.3628 46.8353C55.4014 46.5811 55.4192 46.3242 55.4159 46.0671C55.4255 45.7427 55.3932 45.4183 55.3198 45.1019C55.2543 44.8681 55.1299 44.6545 54.9581 44.4809ZM54.4521 46.541C54.4479 46.6633 54.4168 46.7833 54.361 46.8927C54.3049 46.9965 54.2162 47.0797 54.1081 47.1296C53.9627 47.1934 53.8041 47.2224 53.6451 47.2144H53.1974V44.9174H53.7033C53.8557 44.91 54.0075 44.9391 54.146 45.0022C54.2475 45.0593 54.3281 45.1466 54.3762 45.2516C54.4299 45.3703 54.4591 45.4983 54.4622 45.6282C54.4622 45.7703 54.4622 45.92 54.4622 46.0771C54.4622 46.2342 54.4723 46.3963 54.4622 46.541H54.4521Z" fill="#AFB1B8"/>
<path d="M59.6077 44.0072H58.8032L57.2854 50.7636H58.2669L58.5553 49.312H59.8935L60.1819 50.7636H61.1635L59.6077 44.0072ZM58.702 48.3917L59.1852 45.9426H59.2029L59.6836 48.3917H58.702Z" fill="#AFB1B8"/>
<path d="M65.9497 48.0775H65.932L64.4496 44.0072H63.506V50.7636H64.4875V46.7008H64.5078L66.0079 50.7636H66.9312V44.0072H65.9497V48.0775Z" fill="#AFB1B8"/>
<path d="M71.9476 44.0072L71.1583 46.6933H71.1381L70.3488 44.0072H69.3091L70.6574 47.9079V50.7636H71.639V47.9079L72.9873 44.0072H71.9476Z" fill="#AFB1B8"/>
<path d="M33 52.6714H33.4731V53.9733H33.7943V52.6714H34.2649V52.4045H33V52.6714Z" fill="#AFB1B8"/>
<path d="M36.9767 52.4045L36.3569 53.9733H36.6984L36.83 53.6166H37.4675L37.6041 53.9733H37.9532L37.3182 52.4045H36.9767ZM36.9261 53.3523L37.1437 52.7712L37.3612 53.3523H36.9261Z" fill="#AFB1B8"/>
<path d="M40.9079 53.3947H41.2773V53.5967C41.1694 53.6815 41.0358 53.7281 40.8978 53.7289C40.8333 53.7325 40.7689 53.7207 40.7099 53.6947C40.6509 53.6687 40.5991 53.6291 40.5588 53.5793C40.474 53.4598 40.4322 53.3159 40.4399 53.1703C40.4399 52.8211 40.5942 52.6465 40.9003 52.6465C40.9809 52.6386 41.0617 52.6595 41.128 52.7052C41.1944 52.751 41.2419 52.8186 41.2621 52.8959L41.5783 52.8361C41.51 52.5293 41.2849 52.3747 40.9003 52.3747C40.6947 52.3693 40.4947 52.4415 40.3413 52.5767C40.2607 52.6547 40.1983 52.7492 40.1586 52.8534C40.1188 52.9577 40.1026 53.0692 40.1111 53.1802C40.1017 53.3949 40.1749 53.6051 40.316 53.7688C40.3943 53.8481 40.4892 53.9096 40.594 53.9492C40.6988 53.9888 40.8111 54.0056 40.9231 53.9983C41.1734 54.0051 41.4165 53.9157 41.6011 53.7489V53.1304H40.9079V53.3947Z" fill="#AFB1B8"/>
<path d="M44.9226 52.4045H44.5988V53.9733H45.7194V53.7064H44.9226V52.4045Z" fill="#AFB1B8"/>
<path d="M48.3175 52.4045H47.9937V53.9733H48.3175V52.4045Z" fill="#AFB1B8"/>
<path d="M51.6365 53.452L50.9813 52.4045H50.6676V53.9733H50.9686V52.9482L51.6112 53.9733H51.9325V52.4045H51.6365V53.452Z" fill="#AFB1B8"/>
<path d="M54.6368 53.2824H55.4337V53.0156H54.6368V52.6714H55.4944V52.4045H54.313V53.9733H55.5273V53.7064H54.6368V53.2824Z" fill="#AFB1B8"/>
<path d="M61.9122 53.0231H61.2823V52.4045H60.9611V53.9733H61.2823V53.2874H61.9122V53.9733H62.2335V52.4045H61.9122V53.0231Z" fill="#AFB1B8"/>
<path d="M64.9302 53.2824H65.7296V53.0156H64.9302V52.6714H65.7903V52.4045H64.6089V53.9733H65.8206V53.7064H64.9302V53.2824Z" fill="#AFB1B8"/>
<path d="M69.0233 53.2825C69.3015 53.2401 69.4432 53.0954 69.4432 52.846C69.4513 52.7793 69.441 52.7117 69.4134 52.6502C69.3858 52.5888 69.3419 52.5358 69.2863 52.4968C69.1415 52.4255 68.9799 52.3936 68.8183 52.4046H68.1404V53.9733H68.4617V53.3174H68.5249C68.5934 53.3132 68.6619 53.3252 68.7247 53.3523C68.7717 53.3807 68.8108 53.4201 68.8386 53.467L69.1877 53.9658H69.5722L69.3774 53.6591C69.2913 53.5076 69.1699 53.3785 69.0233 53.2825ZM68.6994 53.0655H68.4617V52.6714H68.7146C68.8248 52.6627 68.9357 52.6754 69.041 52.7088C69.0644 52.7291 69.0828 52.7543 69.095 52.7825C69.1072 52.8108 69.1127 52.8414 69.1113 52.8721C69.1098 52.9027 69.1014 52.9327 69.0866 52.9597C69.0718 52.9867 69.051 53.0101 69.0258 53.0281C68.9202 53.0598 68.8096 53.0725 68.6994 53.0655Z" fill="#AFB1B8"/>
<path d="M72.1096 53.2824H72.9064V53.0156H72.1096V52.6714H72.9697V52.4045H71.7858V53.9733H73V53.7064H72.1096V53.2824Z" fill="#AFB1B8"/>
</svg>
